<svg xmlns="http://www.w3.org/2000/svg" width="101" height="98"><path style="fill:#fcfefc; stroke:none;" d="M0 0L0 98L101 98L101 0L0 0z"></path><path style="fill:#b2d48c; stroke:none;" d="M26 34L27 34C33.1451 21.5599 41.915 39.2983 47 43C43.2336 37.3959 30.4974 18.177 26 34M59 27L59 28L64 28L59 27z"></path><path style="fill:#729a46; stroke:none;" d="M32 43L44 48L38 38L40 38C41.8063 41.6851 43.9167 43.407 48 44C44.5793 40.2814 41.8372 34.4922 37.8526 31.6196C26.095 23.1433 28.3998 36.2272 32 43z"></path><path style="fill:#b2d48c; stroke:none;" d="M57 28L58 29L57 28z"></path><path style="fill:#607c95; stroke:none;" d="M57 29L55 34L61 29L57 29z"></path><path style="fill:#325069; stroke:none;" d="M58 29L58 30L63 30L61 37L69 36C65.7627 45.4365 50.6892 50.3574 44.3673 59C40.7264 63.9774 41.136 68.8951 34 70L36 63L28 64L41.6752 52.865L58 30C53.1484 32.6115 53.4055 37.8962 49.892 41.8295C42.0967 50.5562 27.1104 54.804 27 67L35 64L31 71C34.5044 71.7593 37.827 71.9942 40.7716 69.4861C44.1972 66.5684 44.9531 61.3955 48.0586 58C54.798 50.6315 72.0841 43.8768 70 33L63 36L66 29L58 29z"></path><path style="fill:#607c95; stroke:none;" d="M63.6667 28.3333L64.3333 28.6667L63.6667 28.3333z"></path><path style="fill:#729a46; stroke:none;" d="M65 28L66 29L65 28M56 29L57 30L56 29z"></path><path style="fill:#b2d48c; stroke:none;" d="M66 29L63 35L64 35L66 29M33 40L34 40L38 34C30.5859 29.2606 28.3159 33.3039 33 40z"></path><path style="fill:#607c95; stroke:none;" d="M55 30L56 31L55 30z"></path><path style="fill:#729a46; stroke:none;" d="M59 30L60 31L59 30z"></path><path style="fill:#b2d48c; stroke:none;" d="M60 30C60.3394 35.195 59.9005 38.5248 66 39L66 38L61 38L62 30L60 30z"></path><path style="fill:#607c95; stroke:none;" d="M62.3333 30.6667L62.6667 31.3333L62.3333 30.6667M65 30L66 31L65 30z"></path><path style="fill:#729a46; stroke:none;" d="M54 31L55 32L54 31z"></path><path style="fill:#b2d48c; stroke:none;" d="M58 31L59 32L58 31z"></path><path style="fill:#fcfefc; stroke:none;" d="M29 63L37 62L36 69L44.1481 58L58 44.5995L68 37C62.318 39.2311 59.772 36.9507 61 31L52.8519 42L29 63z"></path><path style="fill:#607c95; stroke:none;" d="M64 31L65 32L64 31z"></path><path style="fill:#fcfefc; stroke:none;" d="M30 32C31.4618 36.1466 34.3149 38.7115 37 34L30 32z"></path><path style="fill:#b2d48c; stroke:none;" d="M53 32L54 33L53 32z"></path><path style="fill:#607c95; stroke:none;" d="M63 32L64 33L63 32z"></path><path style="fill:#b2d48c; stroke:none;" d="M67 32L65 35L67 32z"></path><path style="fill:#607c95; stroke:none;" d="M68.6667 32.3333L69.3333 32.6667L68.6667 32.3333M53.3333 33.6667L53.6667 34.3333L53.3333 33.6667z"></path><path style="fill:#b2d48c; stroke:none;" d="M56 33L57 34L56 33z"></path><path style="fill:#607c95; stroke:none;" d="M67 33L68 34L67 33z"></path><path style="fill:#b2d48c; stroke:none;" d="M70 33L71 34L70 33M52 34L52 38L53 38L52 34z"></path><path style="fill:#729a46; stroke:none;" d="M55 34L56 35L55 34z"></path><path style="fill:#607c95; stroke:none;" d="M66 34L67 35L66 34M70 34L71 35L70 34z"></path><path style="fill:#b2d48c; stroke:none;" d="M27 35L28 36L27 35M55 35L54 41L55 41L55 35z"></path><path style="fill:#607c95; stroke:none;" d="M63 35L64 36L63 35z"></path><path style="fill:#729a46; stroke:none;" d="M64 35L65 36L64 35z"></path><path style="fill:#607c95; stroke:none;" d="M65 35L66 36L65 35z"></path><path style="fill:#b2d48c; stroke:none;" d="M28.3333 36.6667L28.6667 37.3333L28.3333 36.6667z"></path><path style="fill:#729a46; stroke:none;" d="M67 36L68 37L67 36z"></path><path style="fill:#607c95; stroke:none;" d="M68 36L68 39L69 39L68 36M61 37L61 38L66 38L61 37z"></path><path style="fill:#729a46; stroke:none;" d="M66 37L67 38L66 37z"></path><path style="fill:#b2d48c; stroke:none;" d="M29 38L30 39L29 38M38 38C37.9282 42.8167 41.1833 46.0718 46 46L40 38L38 38z"></path><path style="fill:#729a46; stroke:none;" d="M52 38L53 39L52 38z"></path><path style="fill:#607c95; stroke:none;" d="M70 38L71 39L70 38z"></path><path style="fill:#fcfefc; stroke:none;" d="M38 39L45 46L38 39z"></path><path style="fill:#b2d48c; stroke:none;" d="M51 39L48 43L51 39z"></path><path style="fill:#607c95; stroke:none;" d="M52 39L53 40L52 39M54 39L55 40L54 39z"></path><path style="fill:#b2d48c; stroke:none;" d="M67 39L68 40L67 39z"></path><path style="fill:#729a46; stroke:none;" d="M70 39L71 40L70 39z"></path><path style="fill:#b2d48c; stroke:none;" d="M30 40L31 41L30 40z"></path><path style="fill:#607c95; stroke:none;" d="M51 40L52 41L51 40M67 40L68 41L67 40z"></path><path style="fill:#b2d48c; stroke:none;" d="M70 40L71 41L70 40M31.3333 41.6667L31.6667 42.3333L31.3333 41.6667z"></path><path style="fill:#607c95; stroke:none;" d="M50 41L51 42L50 41z"></path><path style="fill:#b2d48c; stroke:none;" d="M53 41L54 42L53 41z"></path><path style="fill:#729a46; stroke:none;" d="M66 41L67 42L66 41z"></path><path style="fill:#607c95; stroke:none;" d="M69 41L70 42L69 41z"></path><path style="fill:#b2d48c; stroke:none;" d="M34.6667 42.3333L35.3333 42.6667L34.6667 42.3333z"></path><path style="fill:#607c95; stroke:none;" d="M49 42L50 43L49 42z"></path><path style="fill:#b2d48c; stroke:none;" d="M52 42L53 43L52 42M64 42L65 43L64 42z"></path><path style="fill:#607c95; stroke:none;" d="M65 42L66 43L65 42M68 42L67 44L68 42z"></path><path style="fill:#b2d48c; stroke:none;" d="M32.6667 43.3333L33.3333 43.6667L32.6667 43.3333M36 43L37 44L36 43z"></path><path style="fill:#607c95; stroke:none;" d="M48 43L49 44L48 43M50 43L48 46L50 43z"></path><path style="fill:#b2d48c; stroke:none;" d="M51 43L52 44L51 43M58 43C51.9051 49.0949 41.6882 55.8709 41 65L42 65L58 43z"></path><path style="fill:#607c95; stroke:none;" d="M59 43L59 44L64 44L59 43z"></path><path style="fill:#b2d48c; stroke:none;" d="M68 43L69 44L68 43M37 44L38 45L37 44z"></path><path style="fill:#607c95; stroke:none;" d="M46 44L47 45L46 44z"></path><path style="fill:#b2d48c; stroke:none;" d="M50 44L51 45L50 44z"></path><path style="fill:#607c95; stroke:none;" d="M58 44L59 45L58 44M65 44L66 45L65 44z"></path><path style="fill:#729a46; stroke:none;" d="M66 44L67 45L66 44z"></path><path style="fill:#b2d48c; stroke:none;" d="M67 44L68 45L67 44M38 45L39 46L38 45M49 45L50 46L49 45z"></path><path style="fill:#607c95; stroke:none;" d="M57 45L58 46L57 45M60 45L60 46L64 46L60 45z"></path><path style="fill:#b2d48c; stroke:none;" d="M64.6667 45.3333L65.3333 45.6667L64.6667 45.3333M39 46L40 47L39 46z"></path><path style="fill:#607c95; stroke:none;" d="M45 46L46 47L45 46z"></path><path style="fill:#b2d48c; stroke:none;" d="M48 46L49 47L48 46z"></path><path style="fill:#607c95; stroke:none;" d="M56 46L57 47L56 46z"></path><path style="fill:#b2d48c; stroke:none;" d="M59 46L60 47L59 46M40 47L41 48L40 47z"></path><path style="fill:#607c95; stroke:none;" d="M44 47L45 48L44 47z"></path><path style="fill:#b2d48c; stroke:none;" d="M47 47L48 48L47 47z"></path><path style="fill:#607c95; stroke:none;" d="M55 47L56 48L55 47z"></path><path style="fill:#b2d48c; stroke:none;" d="M58 47L59 48L58 47M41 48L37 54L41 48z"></path><path style="fill:#607c95; stroke:none;" d="M42.3333 48.6667L42.6667 49.3333L42.3333 48.6667M45 48L46 49L45 48z"></path><path style="fill:#b2d48c; stroke:none;" d="M46 48L47 49L46 48z"></path><path style="fill:#607c95; stroke:none;" d="M54 48L55 49L54 48z"></path><path style="fill:#b2d48c; stroke:none;" d="M57 48L58 49L57 48M45 49L46 50L45 49z"></path><path style="fill:#607c95; stroke:none;" d="M53 49L54 50L53 49z"></path><path style="fill:#729a46; stroke:none;" d="M56 49C57.7572 55.2604 66.3107 58.8402 67.0787 64.9769C67.5708 68.9091 63.4209 69.0671 60.9992 67.5077C56.853 64.8379 53.0556 60.4079 51 56L50 56L48 57C50.4018 61.6298 68.8982 81.2585 70.338 65.9846C70.9311 59.6928 60.503 52.172 56 49z"></path><path style="fill:#607c95; stroke:none;" d="M41 50L42 51L41 50M43 50L44 51L43 50z"></path><path style="fill:#b2d48c; stroke:none;" d="M44 50L45 51L44 50z"></path><path style="fill:#607c95; stroke:none;" d="M52 50L53 51L52 50M55 50L54 52L56 52L55 50z"></path><path style="fill:#b2d48c; stroke:none;" d="M58 50L59 51L58 50z"></path><path style="fill:#607c95; stroke:none;" d="M40 51L41 52L40 51z"></path><path style="fill:#b2d48c; stroke:none;" d="M43 51L44 52L43 51z"></path><path style="fill:#607c95; stroke:none;" d="M51 51L52 52L51 51z"></path><path style="fill:#b2d48c; stroke:none;" d="M59 51L60 52L59 51z"></path><path style="fill:#607c95; stroke:none;" d="M39 52L40 53L39 52z"></path><path style="fill:#b2d48c; stroke:none;" d="M42 52L43 53L42 52z"></path><path style="fill:#607c95; stroke:none;" d="M50 52L51 53L50 52z"></path><path style="fill:#b2d48c; stroke:none;" d="M51 56L52 56C57.3922 51.0708 63.5185 60.8431 68 64C64.6838 59.2923 55.7822 47.3637 51 56M60 52L61 53L60 52z"></path><path style="fill:#607c95; stroke:none;" d="M38 53L39 54L38 53z"></path><path style="fill:#b2d48c; stroke:none;" d="M41 53L42 54L41 53z"></path><path style="fill:#607c95; stroke:none;" d="M49 53L50 54L49 53z"></path><path style="fill:#fcfefc; stroke:none;" d="M53.4776 54.0864C48.2004 57.3688 60.8586 70.7235 65.6628 67.9136C71.0615 64.756 58.0847 51.2209 53.4776 54.0864z"></path><path style="fill:#b2d48c; stroke:none;" d="M61 53L62 54L61 53M32 54L33 55L32 54z"></path><path style="fill:#607c95; stroke:none;" d="M33 54L33 55L37 55L33 54z"></path><path style="fill:#b2d48c; stroke:none;" d="M40 54L41 55L40 54z"></path><path style="fill:#607c95; stroke:none;" d="M48 54L49 55L48 54z"></path><path style="fill:#b2d48c; stroke:none;" d="M62 54L63 55L62 54M30 55L31 56L30 55z"></path><path style="fill:#607c95; stroke:none;" d="M31 55L32 56L31 55M38 55L33 56L33 57L39 56L38 55z"></path><path style="fill:#b2d48c; stroke:none;" d="M39 55L40 56L39 55z"></path><path style="fill:#607c95; stroke:none;" d="M47 55L48 56L47 55M50 55L51 56L50 55z"></path><path style="fill:#b2d48c; stroke:none;" d="M63 55L64 56L63 55z"></path><path style="fill:#607c95; stroke:none;" d="M29 56L30 57L29 56z"></path><path style="fill:#b2d48c; stroke:none;" d="M38 56L39 57L38 56z"></path><path style="fill:#607c95; stroke:none;" d="M46 56L47 57L46 56M49.3333 56.6667L49.6667 57.3333L49.3333 56.6667z"></path><path style="fill:#b2d48c; stroke:none;" d="M64 56L65 57L64 56z"></path><path style="fill:#607c95; stroke:none;" d="M28 57L29 58L28 57M31 57L29 60L31 57z"></path><path style="fill:#b2d48c; stroke:none;" d="M32 57L33 58L32 57z"></path><path style="fill:#607c95; stroke:none;" d="M45 57L46 58L45 57z"></path><path style="fill:#b2d48c; stroke:none;" d="M51.3333 57.6667L51.6667 58.3333L51.3333 57.6667M65 57L66 58L65 57M27 58L26 61L27 61L27 58M31 58L32 59L31 58z"></path><path style="fill:#607c95; stroke:none;" d="M44 58L45 59L44 58z"></path><path style="fill:#b2d48c; stroke:none;" d="M47.6667 58.3333L48.3333 58.6667L47.6667 58.3333M66 58L67 59L66 58z"></path><path style="fill:#607c95; stroke:none;" d="M27 59L28 60L27 59z"></path><path style="fill:#b2d48c; stroke:none;" d="M30 59L31 60L30 59z"></path><path style="fill:#607c95; stroke:none;" d="M43 59L44 60L43 59z"></path><path style="fill:#b2d48c; stroke:none;" d="M46 59L47 60L46 59M52 59L53 60L52 59M67 59L68 60L67 59M29.3333 60.6667L29.6667 61.3333L29.3333 60.6667z"></path><path style="fill:#607c95; stroke:none;" d="M42 60L43 61L42 60z"></path><path style="fill:#b2d48c; stroke:none;" d="M45 60L46 61L45 60M49 60L50 61L49 60M53 60L54 61L53 60M68 60L69 61L68 60z"></path><path style="fill:#729a46; stroke:none;" d="M26 61L27 62L26 61z"></path><path style="fill:#607c95; stroke:none;" d="M28 61L30 64L28 61z"></path><path style="fill:#b2d48c; stroke:none;" d="M44 61L44 66L45 66L44 61M50 61L51 62L50 61M54 61L55 62L54 61M69 61L70 62L69 61z"></path><path style="fill:#607c95; stroke:none;" d="M26 62L26 65L27 65L26 62z"></path><path style="fill:#b2d48c; stroke:none;" d="M30 62L31 63L30 62z"></path><path style="fill:#607c95; stroke:none;" d="M31 62L31 63L36 63L31 62z"></path><path style="fill:#b2d48c; stroke:none;" d="M36.3333 62.6667L36.6667 63.3333L36.3333 62.6667z"></path><path style="fill:#607c95; stroke:none;" d="M42.3333 62.6667L42.6667 63.3333L42.3333 62.6667z"></path><path style="fill:#b2d48c; stroke:none;" d="M51 62L52 63L51 62M55 62L56 63L55 62M52 63L53 64L52 63M56 63L57 64L56 63M70 63L71 64L70 63z"></path><path style="fill:#607c95; stroke:none;" d="M31 64L32 65L31 64z"></path><path style="fill:#b2d48c; stroke:none;" d="M32.6667 64.3333L33.3333 64.6667L32.6667 64.3333z"></path><path style="fill:#607c95; stroke:none;" d="M34.3333 64.6667L34.6667 65.3333L34.3333 64.6667z"></path><path style="fill:#729a46; stroke:none;" d="M36 64L36 67L37 67L36 64z"></path><path style="fill:#b2d48c; stroke:none;" d="M53 64L54 65L53 64M57 64L58 65L57 64M26.3333 65.6667L26.6667 66.3333L26.3333 65.6667M31 65L32 66L31 65z"></path><path style="fill:#729a46; stroke:none;" d="M41 65L42 66L41 65z"></path><path style="fill:#b2d48c; stroke:none;" d="M54 65L55 66L54 65M58 65L59 66L58 65z"></path><path style="fill:#607c95; stroke:none;" d="M29 66L28 68L29 66z"></path><path style="fill:#b2d48c; stroke:none;" d="M30 66L31 67L30 66M33 66L30 71L31 71L33 66M40 66L41 67L40 66z"></path><path style="fill:#607c95; stroke:none;" d="M41 66L42 67L41 66M43 66L44 67L43 66z"></path><path style="fill:#b2d48c; stroke:none;" d="M55 66L56 67L55 66M59 66L60 67L59 66z"></path><path style="fill:#729a46; stroke:none;" d="M27 67L28 68L27 67z"></path><path style="fill:#b2d48c; stroke:none;" d="M29 67L30 68L29 67z"></path><path style="fill:#607c95; stroke:none;" d="M33 67L34 68L33 67z"></path><path style="fill:#b2d48c; stroke:none;" d="M36 67L37 68L36 67z"></path><path style="fill:#729a46; stroke:none;" d="M40 67L41 68L40 67z"></path><path style="fill:#b2d48c; stroke:none;" d="M43 67L44 68L43 67M56 67L57 68L56 67M60 67L61 68L60 67M67 67L68 68L67 67M70.3333 67.6667L70.6667 68.3333L70.3333 67.6667z"></path><path style="fill:#607c95; stroke:none;" d="M32 68L33 69L32 68z"></path><path style="fill:#b2d48c; stroke:none;" d="M35 68L35 70L37 70L35 68M38 68L39 69L38 68z"></path><path style="fill:#729a46; stroke:none;" d="M39 68L40 69L39 68z"></path><path style="fill:#607c95; stroke:none;" d="M42 68L40 71L42 68z"></path><path style="fill:#b2d48c; stroke:none;" d="M57 68L58 69L57 68M61 68L62 69L61 68M66 68L67 69L66 68z"></path><path style="fill:#607c95; stroke:none;" d="M31 69L32 70L31 69M34 69L35 70L34 69z"></path><path style="fill:#729a46; stroke:none;" d="M37 69L38 70L37 69z"></path><path style="fill:#607c95; stroke:none;" d="M38 69L39 70L38 69z"></path><path style="fill:#b2d48c; stroke:none;" d="M42 69L43 70L42 69M58 69L59 70L58 69M63 69L63 70L66 70L63 69M69 69L70 70L69 69M41 70L42 71L41 70M59 70L60 71L59 70M68 70L69 71L68 70M31 71L31 72L38 73L38 72L31 71z"></path><path style="fill:#607c95; stroke:none;" d="M32 71L33 72L32 71M37.6667 71.3333L38.3333 71.6667L37.6667 71.3333z"></path><path style="fill:#b2d48c; stroke:none;" d="M39 71L40 72L39 71M60.6667 71.3333L61.3333 71.6667L60.6667 71.3333M66.6667 71.3333L67.3333 71.6667L66.6667 71.3333M63 72L63 73L66 73L63 72z"></path></svg>